<svg xmlns="http://www.w3.org/2000/svg" width="32" height="32" viewBox="0 0 24 24"><path fill="currentColor" d="M12 2c5.523 0 10 4.477 10 10s-4.477 10-10 10S2 17.523 2 12S6.477 2 12 2zM8.823 15.343c-.395-.477-.886-.647-1.479-.509l-.15.041l-.59 1.016a.823.823 0 0 0 1.366.916l.062-.093l.79-1.371zM13.21 8.66c-.488.404-.98 1.597-.29 2.787l3.04 5.266a.824.824 0 0 0 1.476-.722l-.049-.1l-.802-1.392h1.19a.82.82 0 0 0 .822-.823a.82.82 0 0 0-.72-.816l-.103-.006h-2.14L13.44 9.057l-.23-.396zm.278-3.044a.825.825 0 0 0-1.063.21l-.062.092l-.367.633l-.359-.633a.824.824 0 0 0-1.476.722l.049.1l.838 1.457l-2.685 4.653H6.266a.82.82 0 0 0-.822.822c0 .421.312.766.719.817l.103.006h7.48c.34-.64-.06-1.549-.81-1.638l-.121-.007h-2.553l3.528-6.11a.823.823 0 0 0-.302-1.124z"/></svg>